<svg width="270" height="46" viewBox="0 0 270 46" fill="none" xmlns="http://www.w3.org/2000/svg">
<g clip-path="url(#clip0)">
<path d="M30.3588 7.87207C33.4233 14.7024 36.9917 24.6211 39.2969 31.843C40.778 36.484 40.9449 40.2192 39.3377 42.6878C40.6997 42.8308 41.9732 42.9398 43.0832 42.9977C46.2736 43.1577 49.1066 41.2577 49.7365 37.308C49.5246 35.3446 48.8829 33.452 47.8569 31.7647L36.498 12.0159C34.5742 9.29194 32.5108 7.98443 30.3418 7.87888" fill="#23BADE"/>
<path d="M22.0713 0.643622L22.1592 0.606445L22.0713 0.643622Z" fill="#23BADE"/>
<path d="M5.44829 25.5544C4.04545 28.5984 3.95692 31.0602 4.94436 33.0249C9.30952 26.9402 16.0445 18.9045 21.1111 13.3203C24.3322 9.71789 27.4444 7.71578 30.359 7.8724C32.528 7.97796 34.5914 9.26844 36.5152 12.0094L33.0285 5.86007C30.0798 0.759436 25.9292 -0.9805 22.1599 0.606213L22.0713 0.643667C21.812 0.755433 21.5585 0.880446 21.312 1.01821H21.295C19.63 1.9716 18.0467 3.57194 16.746 5.87029C13.038 12.3397 5.61173 25.2786 1.89692 31.748C1.65176 32.1736 1.44065 32.5958 1.24316 33.0147C1.44065 32.5992 1.64835 32.1838 1.89351 31.7582L5.44829 25.5544Z" fill="#1A3962"/>
<path d="M0.395508 35.3064C0.436367 35.1566 0.470417 35.0067 0.521491 34.8535C0.473822 35.0067 0.436367 35.1566 0.395508 35.3064" fill="#1A3962"/>
<path d="M0.742188 34.223C0.823907 33.9983 0.915841 33.7701 1.01118 33.542C0.915841 33.7701 0.823907 33.9983 0.742188 34.223Z" fill="#1A3962"/>
<path d="M10.0175 45.9368L39.7224 45.9606C45.3304 45.9606 48.8681 43.458 49.6275 39.6649V39.6376C49.6964 39.287 49.7408 38.932 49.7602 38.5753C49.7602 38.5276 49.7602 38.4799 49.7602 38.4323C49.7805 38.0498 49.7737 37.6663 49.7398 37.2848V37.2848C49.1099 41.2345 46.277 43.1345 43.0865 42.9745C41.9595 42.9132 40.703 42.8076 39.3411 42.6646C31.9284 41.9223 21.6114 40.0496 14.2499 38.4357C9.54422 37.4142 6.27545 35.664 4.95092 33.0252C3.96348 31.0605 4.05201 28.5987 5.45486 25.5547L1.89326 31.7619C1.64811 32.1876 1.4404 32.603 1.24292 33.0184C1.1612 33.1954 1.08629 33.3589 1.01138 33.5427C0.916039 33.7709 0.824105 33.9956 0.742385 34.2237C0.660666 34.4519 0.585757 34.6459 0.521063 34.8536C0.473393 35.0069 0.435939 35.1567 0.395079 35.3065C0.251653 35.8181 0.144696 36.3392 0.0750124 36.866C0.0750124 36.8932 0.0750124 36.9205 0.0750124 36.9477C0.0409628 37.2405 0.023938 37.5231 0.0171281 37.8057C0.0171281 37.8568 0.0171281 37.9045 0.0171281 37.9522C-0.0339464 42.6578 3.6332 45.9266 10.0345 45.9368" fill="#127DC2"/>
<path d="M97.9639 35.1116C97.0191 36.1218 95.8773 36.9276 94.6089 37.4793C93.3406 38.031 91.9727 38.317 90.5895 38.3196C89.2064 38.3221 87.8374 38.0412 86.5671 37.4941C85.2967 36.9471 84.1519 36.1455 83.2034 35.1389C81.2468 33.0659 80.183 30.3072 80.2411 27.4573C80.2191 26.0625 80.4745 24.6772 80.9924 23.3819C81.5103 22.0866 82.2803 20.9071 83.2579 19.9119C84.2079 18.9113 85.3525 18.1155 86.6214 17.5733C87.8902 17.0312 89.2565 16.7541 90.6363 16.7592C92.016 16.7643 93.3802 17.0515 94.645 17.603C95.9098 18.1545 97.0485 18.9587 97.9911 19.9663C99.9452 22.0099 101.019 24.739 100.981 27.5662C101.011 30.3811 99.9265 33.0936 97.9639 35.1116V35.1116ZM90.9394 11.5493C86.4426 11.5493 82.9684 13.2313 80.5169 16.5954H80.4045V2.29459C80.4045 2.13565 80.3414 1.98322 80.229 1.87084C80.1166 1.75845 79.9642 1.69531 79.8052 1.69531H75.3005C75.1415 1.69531 74.9891 1.75845 74.8767 1.87084C74.7643 1.98322 74.7012 2.13565 74.7012 2.29459V42.1667C74.7007 42.2457 74.7159 42.324 74.7458 42.3971C74.7757 42.4702 74.8198 42.5367 74.8755 42.5927C74.9312 42.6487 74.9974 42.6931 75.0703 42.7234C75.1433 42.7538 75.2215 42.7694 75.3005 42.7694H79.6758C79.8564 42.7694 80.0297 42.6976 80.1574 42.5699C80.2851 42.4422 80.3568 42.269 80.3568 42.0884V38.377H80.4692C82.0326 40.4986 84.2322 42.066 86.7479 42.8511C88.2555 43.3404 89.8351 43.5707 91.4195 43.5321C93.4385 43.5314 95.436 43.1178 97.2892 42.3167C99.1425 41.5157 100.812 40.3442 102.196 38.8741C105.197 35.7665 106.696 31.9984 106.694 27.5696C106.719 25.4773 106.323 23.4014 105.531 21.4648C104.738 19.5283 103.565 17.7705 102.08 16.2958C100.657 14.7715 98.9306 13.5618 97.0119 12.7444C95.0932 11.9269 93.0248 11.5198 90.9394 11.5493" fill="#1A3962"/>
<path d="M131.707 35.1972C130.738 36.2093 129.57 37.0095 128.276 37.5475C126.982 38.0855 125.59 38.3495 124.189 38.323C122.808 38.3435 121.439 38.0707 120.172 37.5224C118.905 36.9742 117.768 36.1631 116.838 35.1427C115.864 34.1496 115.097 32.9738 114.579 31.683C114.061 30.3922 113.804 29.0118 113.821 27.6212C113.764 24.7662 114.838 22.0046 116.811 19.9396C117.751 18.9102 118.901 18.0938 120.183 17.5453C121.465 16.9968 122.85 16.7288 124.244 16.7593C127.319 16.7593 129.844 17.8012 131.816 19.8851C133.789 21.9689 134.776 24.5476 134.779 27.6212C134.804 29.0248 134.546 30.4191 134.02 31.7204C133.493 33.0218 132.709 34.2032 131.714 35.1938L131.707 35.1972ZM134.676 16.647H134.567C133.495 14.9863 131.973 13.6639 130.178 12.8334C128.322 11.9699 126.297 11.5303 124.25 11.5463C119.645 11.5463 115.804 13.082 112.728 16.1532C109.652 19.2245 108.114 23.0664 108.114 27.679C108.114 32.2508 109.66 36.0371 112.752 39.038C115.844 42.0389 119.674 43.5382 124.244 43.536C126.329 43.5529 128.389 43.0732 130.253 42.1365C132.065 41.2358 133.566 39.8126 134.561 38.0506H134.67V42.082C134.67 42.2626 134.741 42.4359 134.869 42.5636C134.997 42.6913 135.17 42.763 135.351 42.763H139.685C139.866 42.763 140.039 42.6913 140.167 42.5636C140.294 42.4359 140.366 42.2626 140.366 42.082V13.0581C140.366 12.8775 140.294 12.7043 140.167 12.5766C140.039 12.4489 139.866 12.3771 139.685 12.3771H135.357C135.177 12.3771 135.004 12.4489 134.876 12.5766C134.748 12.7043 134.676 12.8775 134.676 13.0581V16.647Z" fill="#1A3962"/>
<path d="M159.251 11.5493C155.373 11.5493 152.411 12.9022 150.364 15.608H150.251V13.0577C150.251 12.877 150.179 12.7038 150.052 12.5761C149.924 12.4484 149.751 12.3767 149.57 12.3767H145.62C145.44 12.3767 145.267 12.4484 145.139 12.5761C145.011 12.7038 144.939 12.877 144.939 13.0577V42.0816C144.939 42.2622 145.011 42.4354 145.139 42.5631C145.267 42.6908 145.44 42.7626 145.62 42.7626H149.955C150.136 42.7626 150.309 42.6908 150.436 42.5631C150.564 42.4354 150.636 42.2622 150.636 42.0816V26.1974C150.636 23.453 151.303 21.1944 152.638 19.4215C153.973 17.6487 155.976 16.7623 158.648 16.7623C163.694 16.7623 166.218 19.9255 166.22 26.2519V42.0816C166.22 42.2622 166.292 42.4354 166.42 42.5631C166.548 42.6908 166.721 42.7626 166.901 42.7626H171.236C171.417 42.7626 171.59 42.6908 171.718 42.5631C171.845 42.4354 171.917 42.2622 171.917 42.0816V24.7707C171.917 21.5542 171.277 18.9573 169.997 16.9802C167.69 13.3482 164.105 11.5322 159.24 11.5322" fill="#1A3962"/>
<path d="M201.067 12.3702H195.939C195.792 12.3687 195.647 12.3982 195.512 12.4569C195.378 12.5156 195.258 12.6021 195.159 12.7107L182.847 27.0217L196.538 42.4224C196.634 42.5301 196.752 42.6162 196.885 42.6748C197.017 42.7335 197.16 42.7635 197.304 42.7629H202.817C202.917 42.7633 203.015 42.7346 203.099 42.6803C203.182 42.6259 203.249 42.5483 203.289 42.4569C203.33 42.3655 203.343 42.2642 203.326 42.1656C203.31 42.0669 203.266 41.9751 203.198 41.9014L189.446 26.6914L201.451 13.2282C201.518 13.1542 201.562 13.0624 201.577 12.964C201.593 12.8656 201.579 12.7648 201.538 12.6739C201.498 12.5831 201.431 12.506 201.348 12.452C201.264 12.3981 201.166 12.3697 201.067 12.3702" fill="#1A3962"/>
<path d="M177.715 42.7699H182.05C182.23 42.7699 182.404 42.6982 182.531 42.5705C182.659 42.4428 182.731 42.2696 182.731 42.0889V2.39388C182.731 2.21327 182.659 2.04006 182.531 1.91235C182.404 1.78464 182.23 1.71289 182.05 1.71289H177.715C177.535 1.71289 177.361 1.78464 177.234 1.91235C177.106 2.04006 177.034 2.21327 177.034 2.39388V42.0821C177.034 42.2627 177.106 42.436 177.234 42.5637C177.361 42.6914 177.535 42.7631 177.715 42.7631" fill="#1A3962"/>
<path d="M225.041 35.1981C224.072 36.2105 222.904 37.011 221.61 37.549C220.316 38.087 218.924 38.3508 217.523 38.3238C216.142 38.3444 214.773 38.0715 213.506 37.5233C212.239 36.9751 211.102 36.1639 210.172 35.1436C209.198 34.1504 208.43 32.9747 207.913 31.6839C207.395 30.3931 207.138 29.0127 207.155 27.622C207.098 24.7671 208.172 22.0055 210.145 19.9404C211.086 18.912 212.236 18.0965 213.518 17.5487C214.8 17.0008 216.184 16.7331 217.578 16.7636C220.649 16.7636 223.172 17.8055 225.147 19.8894C227.122 21.9732 228.117 24.5508 228.133 27.622C228.159 29.0257 227.902 30.4202 227.375 31.7217C226.848 33.0231 226.064 34.2044 225.068 35.1947L225.041 35.1981ZM228.031 16.6478H227.922C226.849 14.9872 225.327 13.6648 223.533 12.8343C221.668 11.9671 219.634 11.5285 217.578 11.5506C212.967 11.5506 209.126 13.0862 206.055 16.1575C202.984 19.2288 201.448 23.0696 201.448 27.6799C201.448 32.2516 202.994 36.038 206.086 39.0389C209.178 42.0398 213.008 43.5391 217.578 43.5368C219.662 43.5537 221.721 43.074 223.584 42.1374C225.396 41.2367 226.896 39.8134 227.891 38.0514H228V42.0829C228 42.2635 228.072 42.4367 228.2 42.5644C228.327 42.6922 228.501 42.7639 228.681 42.7639H233.016C233.196 42.7639 233.369 42.6922 233.497 42.5644C233.625 42.4367 233.697 42.2635 233.697 42.0829V13.059C233.697 12.8784 233.625 12.7052 233.497 12.5775C233.369 12.4498 233.196 12.378 233.016 12.378H228.691C228.511 12.378 228.338 12.4498 228.21 12.5775C228.082 12.7052 228.01 12.8784 228.01 13.059L228.031 16.6478Z" fill="#1A3962"/>
<path d="M243.751 15.8812H243.642V13.0584C243.642 12.8778 243.57 12.7046 243.442 12.5769C243.315 12.4492 243.141 12.3775 242.961 12.3775H239.011C238.83 12.3775 238.657 12.4492 238.53 12.5769C238.402 12.7046 238.33 12.8778 238.33 13.0584V42.0824C238.33 42.263 238.402 42.4362 238.53 42.5639C238.657 42.6916 238.83 42.7633 239.011 42.7633H243.346C243.526 42.7633 243.699 42.6916 243.827 42.5639C243.955 42.4362 244.027 42.263 244.027 42.0824V27.4683C244.027 18.7788 248.62 17.7232 251.62 17.5155C251.749 17.5061 251.869 17.4481 251.957 17.3533C252.045 17.2586 252.093 17.134 252.093 17.0048V12.1187C252.093 12.0719 252.084 12.0256 252.065 11.9826C252.046 11.9397 252.019 11.901 251.985 11.8691C251.951 11.8371 251.91 11.8126 251.866 11.7969C251.822 11.7813 251.775 11.7749 251.729 11.7782C248.324 11.9893 245.303 13.6986 243.751 15.888" fill="#1A3962"/>
<path d="M265.006 11.9278V2.39388C265.006 2.21327 264.934 2.04006 264.806 1.91235C264.678 1.78464 264.505 1.71289 264.325 1.71289H259.987C259.806 1.71289 259.633 1.78464 259.505 1.91235C259.377 2.04006 259.306 2.21327 259.306 2.39388V11.9278H255.301C255.211 11.9278 255.125 11.9637 255.061 12.0275C254.997 12.0914 254.961 12.178 254.961 12.2683V17.0659C254.961 17.1562 254.997 17.2428 255.061 17.3066C255.125 17.3705 255.211 17.4064 255.301 17.4064H259.299V42.0992C259.299 42.2798 259.371 42.453 259.498 42.5807C259.626 42.7084 259.799 42.7802 259.98 42.7802H264.314C264.495 42.7802 264.668 42.7084 264.796 42.5807C264.924 42.453 264.995 42.2798 264.995 42.0992V17.4064H269.674C269.764 17.4064 269.851 17.3705 269.915 17.3066C269.978 17.2428 270.014 17.1562 270.014 17.0659V12.2989C270.014 12.2086 269.978 12.122 269.915 12.0582C269.851 11.9943 269.764 11.9584 269.674 11.9584L265.006 11.9278Z" fill="#1A3962"/>
</g>
<defs>
<clipPath id="clip0">
<rect width="270" height="45.9193" fill="white" transform="translate(0 0.0410156)"/>
</clipPath>
</defs>
</svg>
